<mxfile host="app.diagrams.net" agent="Mozilla/5.0 (Macintosh; Intel Mac OS X 10_15_7) AppleWebKit/537.36 (KHTML, like Gecko) Chrome/122.0.0.0 Safari/537.36" version="24.7.8">
  <diagram id="l8hXMBHkgcEJcSW0mbfh" name="Page-1">
    <mxGraphModel dx="1124" dy="778" grid="1" gridSize="10" guides="1" tooltips="1" connect="1" arrows="1" fold="1" page="1" pageScale="1" pageWidth="1169" pageHeight="827" math="0" shadow="0">
      <root>
        <mxCell id="0" />
        <mxCell id="1" parent="0" />
        <mxCell id="aJsnQmM73jnc_cbVv0XD-6" style="edgeStyle=orthogonalEdgeStyle;rounded=0;orthogonalLoop=1;jettySize=auto;html=1;" edge="1" parent="1" source="aJsnQmM73jnc_cbVv0XD-2" target="aJsnQmM73jnc_cbVv0XD-5">
          <mxGeometry relative="1" as="geometry" />
        </mxCell>
        <mxCell id="aJsnQmM73jnc_cbVv0XD-2" value="Developer" style="shape=image;verticalLabelPosition=bottom;verticalAlign=top;imageAspect=0;aspect=fixed;image=data:image/svg+xml,PHN2ZyB4bWxucz0iaHR0cDovL3d3dy53My5vcmcvMjAwMC9zdmciIHZlcnNpb249IjEiIHZpZXdCb3g9IjAgMCA0OCA0OCIgZW5hYmxlLWJhY2tncm91bmQ9Im5ldyAwIDAgNDggNDgiPiYjeGE7ICAgIDxwb2x5Z29uIGZpbGw9IiNGRjk4MDAiIHBvaW50cz0iMjQsMzcgMTksMzEgMTksMjUgMjksMjUgMjksMzEiLz4mI3hhOyAgICA8ZyBmaWxsPSIjRkZBNzI2Ij4mI3hhOyAgICAgICAgPGNpcmNsZSBjeD0iMzMiIGN5PSIxOSIgcj0iMiIvPiYjeGE7ICAgICAgICA8Y2lyY2xlIGN4PSIxNSIgY3k9IjE5IiByPSIyIi8+JiN4YTsgICAgPC9nPiYjeGE7ICAgIDxwYXRoIGZpbGw9IiNGRkI3NEQiIGQ9Ik0zMywxM2MwLTcuNi0xOC01LTE4LDBjMCwxLjEsMCw1LjksMCw3YzAsNSw0LDksOSw5czktNCw5LTlDMzMsMTguOSwzMywxNC4xLDMzLDEzeiIvPiYjeGE7ICAgIDxwYXRoIGZpbGw9IiM0MjQyNDIiIGQ9Ik0yNCw0Yy02LjEsMC0xMCw0LjktMTAsMTFjMCwwLjgsMCwyLjMsMCwyLjNsMiwxLjd2LTVsMTItNGw0LDR2NWwyLTEuN2MwLDAsMC0xLjUsMC0yLjNjMC00LTEtOC02LTlsLTEtMiBIMjR6Ii8+JiN4YTsgICAgPGcgZmlsbD0iIzc4NDcxOSI+JiN4YTsgICAgICAgIDxjaXJjbGUgY3g9IjI4IiBjeT0iMTkiIHI9IjEiLz4mI3hhOyAgICAgICAgPGNpcmNsZSBjeD0iMjAiIGN5PSIxOSIgcj0iMSIvPiYjeGE7ICAgIDwvZz4mI3hhOyAgICA8cG9seWdvbiBmaWxsPSIjZmZmIiBwb2ludHM9IjI0LDQzIDE5LDMxIDI0LDMyIDI5LDMxIi8+JiN4YTsgICAgPHBvbHlnb24gZmlsbD0iI0QzMkYyRiIgcG9pbnRzPSIyMywzNSAyMi4zLDM5LjUgMjQsNDMuNSAyNS43LDM5LjUgMjUsMzUgMjYsMzQgMjQsMzIgMjIsMzQiLz4mI3hhOyAgICA8cGF0aCBmaWxsPSIjNTQ2RTdBIiBkPSJNMjksMzFMMjksMzFsLTUsMTJsLTUtMTJjMCwwLTExLDItMTEsMTNoMzJDNDAsMzMsMjksMzEsMjksMzF6Ii8+JiN4YTs8L3N2Zz4=;labelBackgroundColor=#ffffff;" vertex="1" parent="1">
          <mxGeometry x="80" y="130" width="48" height="48" as="geometry" />
        </mxCell>
        <mxCell id="aJsnQmM73jnc_cbVv0XD-13" style="edgeStyle=orthogonalEdgeStyle;rounded=0;orthogonalLoop=1;jettySize=auto;html=1;entryX=0;entryY=0.5;entryDx=0;entryDy=0;" edge="1" parent="1" source="aJsnQmM73jnc_cbVv0XD-3" target="aJsnQmM73jnc_cbVv0XD-10">
          <mxGeometry relative="1" as="geometry" />
        </mxCell>
        <mxCell id="aJsnQmM73jnc_cbVv0XD-3" value="Build server" style="shape=image;verticalLabelPosition=bottom;verticalAlign=top;imageAspect=0;aspect=fixed;image=data:image/svg+xml,PHN2ZyB4bWxucz0iaHR0cDovL3d3dy53My5vcmcvMjAwMC9zdmciIHZlcnNpb249IjEiIHZpZXdCb3g9IjAgMCA0OCA0OCIgZW5hYmxlLWJhY2tncm91bmQ9Im5ldyAwIDAgNDggNDgiPiYjeGE7ICAgIDxwYXRoIGZpbGw9IiM5MEE0QUUiIGQ9Ik00MCwzNXY1SDh2LTVINHY1YzAsMi4yLDEuOCw0LDQsNGgzMmMyLjIsMCw0LTEuOCw0LTR2LTVINDB6Ii8+JiN4YTsgICAgPGcgZmlsbD0iIzE1NjVDMCI+JiN4YTsgICAgICAgIDxwb2x5Z29uIHBvaW50cz0iMjQsMjMuNCAxNywxNSAzMSwxNSIvPiYjeGE7ICAgICAgICA8cmVjdCB4PSIyMiIgeT0iNCIgd2lkdGg9IjQiIGhlaWdodD0iMTQiLz4mI3hhOyAgICAgICAgPHBhdGggZD0iTTMxLjUsMjYuOUwzMC44LDI4bDMuNSwxLjlsMC42LTEuMmMxLjYtMywyLjYtNC43LDMuNS01LjJDMzkuMywyMyw0MSwyMyw0NCwyM3YtNCBDMzYuMywxOSwzNS42LDE5LjQsMzEuNSwyNi45eiIvPiYjeGE7ICAgICAgICA8cG9seWdvbiBwb2ludHM9IjM4LjQsMzEgMjkuNCwzNSAyOCwyNSIvPiYjeGE7ICAgICAgICA8cGF0aCBkPSJNMTYuNSwyNi45bDAuNiwxLjJMMTMuNiwzMEwxMywyOC44Yy0xLjYtMy0yLjYtNC43LTMuNS01LjJDOC43LDIzLDcsMjMsNCwyM3YtNCBDMTEuNywxOSwxMi40LDE5LjQsMTYuNSwyNi45eiIvPiYjeGE7ICAgICAgICA8cG9seWdvbiBwb2ludHM9IjIwLDI1IDE4LjYsMzUgOS42LDMxIi8+JiN4YTsgICAgPC9nPiYjeGE7PC9zdmc+;" vertex="1" parent="1">
          <mxGeometry x="535" y="130" width="48" height="48" as="geometry" />
        </mxCell>
        <mxCell id="aJsnQmM73jnc_cbVv0XD-14" style="edgeStyle=orthogonalEdgeStyle;rounded=0;orthogonalLoop=1;jettySize=auto;html=1;entryX=0;entryY=0.5;entryDx=0;entryDy=0;" edge="1" parent="1" source="aJsnQmM73jnc_cbVv0XD-4" target="aJsnQmM73jnc_cbVv0XD-3">
          <mxGeometry relative="1" as="geometry" />
        </mxCell>
        <mxCell id="aJsnQmM73jnc_cbVv0XD-4" value="Version conrol" style="shape=image;verticalLabelPosition=bottom;verticalAlign=top;imageAspect=0;aspect=fixed;image=data:image/svg+xml,PHN2ZyB4bWxucz0iaHR0cDovL3d3dy53My5vcmcvMjAwMC9zdmciIHZlcnNpb249IjEiIHZpZXdCb3g9IjAgMCA0OCA0OCIgZW5hYmxlLWJhY2tncm91bmQ9Im5ldyAwIDAgNDggNDgiPiYjeGE7ICAgIDxwb2x5Z29uIGZpbGw9IiM5MENBRjkiIHBvaW50cz0iMzYsMTMgMzYsOSAyMiw5IDIyLDIyIDEzLDIyIDEzLDI2IDIyLDI2IDIyLDM5IDM2LDM5IDM2LDM1IDI2LDM1IDI2LDI2IDM2LDI2IDM2LDIyIDI2LDIyIDI2LDEzIi8+JiN4YTsgICAgPHJlY3QgeD0iNiIgeT0iMTciIGZpbGw9IiNEODFCNjAiIHdpZHRoPSIxMCIgaGVpZ2h0PSIxNCIvPiYjeGE7ICAgIDxyZWN0IHg9IjMyIiB5PSI2IiBmaWxsPSIjMjE5NkYzIiB3aWR0aD0iMTAiIGhlaWdodD0iMTAiLz4mI3hhOyAgICA8cmVjdCB4PSIzMiIgeT0iMzIiIGZpbGw9IiMyMTk2RjMiIHdpZHRoPSIxMCIgaGVpZ2h0PSIxMCIvPiYjeGE7ICAgIDxyZWN0IHg9IjMyIiB5PSIxOSIgZmlsbD0iIzIxOTZGMyIgd2lkdGg9IjEwIiBoZWlnaHQ9IjEwIi8+JiN4YTs8L3N2Zz4=;" vertex="1" parent="1">
          <mxGeometry x="380" y="130" width="48" height="48" as="geometry" />
        </mxCell>
        <mxCell id="aJsnQmM73jnc_cbVv0XD-7" style="edgeStyle=orthogonalEdgeStyle;rounded=0;orthogonalLoop=1;jettySize=auto;html=1;entryX=0;entryY=0.5;entryDx=0;entryDy=0;" edge="1" parent="1" source="aJsnQmM73jnc_cbVv0XD-5" target="aJsnQmM73jnc_cbVv0XD-4">
          <mxGeometry relative="1" as="geometry" />
        </mxCell>
        <mxCell id="aJsnQmM73jnc_cbVv0XD-5" value="Developer Laptop" style="pointerEvents=1;shadow=0;dashed=0;html=1;strokeColor=none;fillColor=#4495D1;labelPosition=center;verticalLabelPosition=bottom;verticalAlign=top;align=center;outlineConnect=0;shape=mxgraph.veeam.laptop;" vertex="1" parent="1">
          <mxGeometry x="230" y="132" width="58.4" height="44" as="geometry" />
        </mxCell>
        <mxCell id="aJsnQmM73jnc_cbVv0XD-12" style="edgeStyle=orthogonalEdgeStyle;rounded=0;orthogonalLoop=1;jettySize=auto;html=1;" edge="1" parent="1" source="aJsnQmM73jnc_cbVv0XD-10" target="aJsnQmM73jnc_cbVv0XD-11">
          <mxGeometry relative="1" as="geometry" />
        </mxCell>
        <mxCell id="aJsnQmM73jnc_cbVv0XD-10" value="Orchestration" style="shape=image;verticalLabelPosition=bottom;verticalAlign=top;imageAspect=0;aspect=fixed;image=data:image/svg+xml,PHN2ZyB4bWxucz0iaHR0cDovL3d3dy53My5vcmcvMjAwMC9zdmciIHZlcnNpb249IjEiIHZpZXdCb3g9IjAgMCA0OCA0OCIgZW5hYmxlLWJhY2tncm91bmQ9Im5ldyAwIDAgNDggNDgiPiYjeGE7ICAgIDxwYXRoIGZpbGw9IiM4QkMzNEEiIGQ9Ik00MywzNkgyOVYxNGgxMC42YzAuOSwwLDEuNiwwLjYsMS45LDEuNEw0NSwyNnY4QzQ1LDM1LjEsNDQuMSwzNiw0MywzNnoiLz4mI3hhOyAgICA8cGF0aCBmaWxsPSIjMzg4RTNDIiBkPSJNMjksMzZINWMtMS4xLDAtMi0wLjktMi0yVjljMC0xLjEsMC45LTIsMi0yaDIyYzEuMSwwLDIsMC45LDIsMlYzNnoiLz4mI3hhOyAgICA8ZyBmaWxsPSIjMzc0NzRGIj4mI3hhOyAgICAgICAgPGNpcmNsZSBjeD0iMzciIGN5PSIzNiIgcj0iNSIvPiYjeGE7ICAgICAgICA8Y2lyY2xlIGN4PSIxMyIgY3k9IjM2IiByPSI1Ii8+JiN4YTsgICAgPC9nPiYjeGE7ICAgIDxnIGZpbGw9IiM3ODkwOUMiPiYjeGE7ICAgICAgICA8Y2lyY2xlIGN4PSIzNyIgY3k9IjM2IiByPSIyIi8+JiN4YTsgICAgICAgIDxjaXJjbGUgY3g9IjEzIiBjeT0iMzYiIHI9IjIiLz4mI3hhOyAgICA8L2c+JiN4YTsgICAgPHBhdGggZmlsbD0iIzM3NDc0RiIgZD0iTTQxLDI1aC03Yy0wLjYsMC0xLTAuNC0xLTF2LTdjMC0wLjYsMC40LTEsMS0xaDUuM2MwLjQsMCwwLjgsMC4zLDAuOSwwLjdsMS43LDUuMmMwLDAuMSwwLjEsMC4yLDAuMSwwLjNWMjQgQzQyLDI0LjYsNDEuNiwyNSw0MSwyNXoiLz4mI3hhOyAgICA8cG9seWdvbiBmaWxsPSIjRENFREM4IiBwb2ludHM9IjIxLjgsMTMuOCAxMy45LDIxLjcgMTAuMiwxNy45IDgsMjAuMSAxMy45LDI2IDI0LDE1LjkiLz4mI3hhOzwvc3ZnPg==;" vertex="1" parent="1">
          <mxGeometry x="700" y="130" width="48" height="48" as="geometry" />
        </mxCell>
        <mxCell id="aJsnQmM73jnc_cbVv0XD-11" value="Production" style="shape=image;verticalLabelPosition=bottom;verticalAlign=top;imageAspect=0;aspect=fixed;image=data:image/svg+xml,PHN2ZyB4bWxucz0iaHR0cDovL3d3dy53My5vcmcvMjAwMC9zdmciIHZlcnNpb249IjEiIHZpZXdCb3g9IjAgMCA0OCA0OCIgZW5hYmxlLWJhY2tncm91bmQ9Im5ldyAwIDAgNDggNDgiPiYjeGE7ICAgIDxwYXRoIGZpbGw9IiM3Q0IzNDIiIGQ9Ik0yNCw0QzEzLDQsNCwxMyw0LDI0czksMjAsMjAsMjBzMjAtOSwyMC0yMFMzNSw0LDI0LDR6Ii8+JiN4YTsgICAgPHBhdGggZmlsbD0iIzAyNzdCRCIgZD0iTTQ1LDI0YzAsMTEuNy05LjUsMjEtMjEsMjFTMywzNS43LDMsMjRTMTIuMywzLDI0LDNTNDUsMTIuMyw0NSwyNHogTTIzLjgsMzMuN2MwLTAuNC0wLjItMC42LTAuNi0wLjggYy0xLjMtMC40LTIuNS0wLjQtMy42LTEuNWMtMC4yLTAuNC0wLjItMC44LTAuNC0xLjNjLTAuNC0wLjQtMS41LTAuNi0yLjEtMC44Yy0wLjgsMC0xLjcsMC0yLjcsMGMtMC40LDAtMS4xLDAtMS41LDAgYy0wLjYtMC4yLTEuMS0xLjEtMS41LTEuN2MwLTAuMiwwLTAuNi0wLjQtMC42Yy0wLjQtMC4yLTAuOCwwLjItMS4zLDBjLTAuMi0wLjItMC4yLTAuNC0wLjItMC42YzAtMC42LDAuNC0xLjMsMC44LTEuNyBjMC42LTAuNCwxLjMsMC4yLDEuOSwwLjJjMC4yLDAsMC4yLDAsMC40LDAuMmMwLjYsMC4yLDAuOCwxLDAuOCwxLjdjMCwwLjIsMCwwLjQsMCwwLjRjMCwwLjIsMC4yLDAuMiwwLjQsMC4yIGMwLjItMS4xLDAuMi0yLjEsMC40LTMuMmMwLTEuMywxLjMtMi41LDIuMy0yLjljMC40LTAuMiwwLjYsMC4yLDEuMSwwYzEuMy0wLjQsNC40LTEuNywzLjgtMy40Yy0wLjQtMS41LTEuNy0yLjktMy40LTIuNyBjLTAuNCwwLjItMC42LDAuNC0xLDAuNmMtMC42LDAuNC0xLjksMS43LTIuNSwxLjdjLTEuMS0wLjItMS4xLTEuNy0wLjgtMi4zYzAuMi0wLjgsMi4xLTMuNiwzLjQtMy4xYzAuMiwwLjIsMC42LDAuNiwwLjgsMC44IGMwLjQsMC4yLDEuMSwwLjIsMS43LDAuMmMwLjIsMCwwLjQsMCwwLjYtMC4yYzAuMi0wLjIsMC4yLTAuMiwwLjItMC40YzAtMC42LTAuNi0xLjMtMS0xLjdjLTAuNC0wLjQtMS4xLTAuOC0xLjctMS4xIGMtMi4xLTAuNi01LjUsMC4yLTcuMSwxLjdzLTIuOSw0LTMuOCw2LjFjLTAuNCwxLjMtMC44LDIuOS0xLDQuNGMtMC4yLDEtMC40LDEuOSwwLjIsMi45YzAuNiwxLjMsMS45LDIuNSwzLjIsMy40IGMwLjgsMC42LDIuNSwwLjYsMy40LDEuN2MwLjYsMC44LDAuNCwxLjksMC40LDIuOWMwLDEuMywwLjgsMi4zLDEuMywzLjRjMC4yLDAuNiwwLjQsMS41LDAuNiwyLjFjMCwwLjIsMC4yLDEuNSwwLjIsMS43IGMxLjMsMC42LDIuMywxLjMsMy44LDEuN2MwLjIsMCwxLTEuMywxLTEuNWMwLjYtMC42LDEuMS0xLjUsMS43LTEuOWMwLjQtMC4yLDAuOC0wLjQsMS4zLTAuOGMwLjQtMC40LDAuNi0xLjMsMC44LTEuOSBDMjMuOCwzNS4xLDI0LDM0LjMsMjMuOCwzMy43eiBNMjQuMiwxNC4zYzAuMiwwLDAuNC0wLjIsMC44LTAuNGMwLjYtMC40LDEuMy0xLjEsMS45LTEuNWMwLjYtMC40LDEuMy0xLjEsMS43LTEuNSBjMC42LTAuNCwxLjEtMS4zLDEuMy0xLjljMC4yLTAuNCwwLjgtMS4zLDAuNi0xLjljLTAuMi0wLjQtMS4zLTAuNi0xLjctMC44Yy0xLjctMC40LTMuMS0wLjYtNC44LTAuNmMtMC42LDAtMS41LDAuMi0xLjcsMC44IGMtMC4yLDEuMSwwLjYsMC44LDEuNSwxLjFjMCwwLDAuMiwxLjcsMC4yLDEuOWMwLjIsMS0wLjQsMS43LTAuNCwyLjdjMCwwLjYsMCwxLjcsMC40LDIuMUwyNC4yLDE0LjN6IE00MS44LDI5IGMwLjItMC40LDAuMi0xLjEsMC40LTEuNWMwLjItMSwwLjItMi4xLDAuMi0zLjFjMC0yLjEtMC4yLTQuMi0wLjgtNi4xYy0wLjQtMC42LTAuNi0xLjMtMC44LTEuOWMtMC40LTEuMS0xLTIuMS0xLjktMi45IGMtMC44LTEuMS0xLjktNC0zLjgtMy4xYy0wLjYsMC4yLTEsMS0xLjUsMS41Yy0wLjQsMC42LTAuOCwxLjMtMS4zLDEuOWMtMC4yLDAuMi0wLjQsMC42LTAuMiwwLjhjMCwwLjIsMC4yLDAuMiwwLjQsMC4yIGMwLjQsMC4yLDAuNiwwLjIsMSwwLjRjMC4yLDAsMC40LDAuMiwwLjIsMC40YzAsMCwwLDAuMi0wLjIsMC4yYy0xLDEuMS0yLjEsMS45LTMuMSwyLjljLTAuMiwwLjItMC40LDAuNi0wLjQsMC44IGMwLDAuMiwwLjIsMC4yLDAuMiwwLjRjMCwwLjItMC4yLDAuMi0wLjQsMC40Yy0wLjQsMC4yLTAuOCwwLjQtMS4xLDAuNmMtMC4yLDAuNCwwLDEuMS0wLjIsMS41Yy0wLjIsMS4xLTAuOCwxLjktMS4zLDIuOSBjLTAuNCwwLjYtMC42LDEuMy0xLDEuOWMwLDAuOC0wLjIsMS41LDAuMiwyLjFjMSwxLjUsMi45LDAuNiw0LjQsMS4zYzAuNCwwLjIsMC44LDAuMiwxLjEsMC42YzAuNiwwLjYsMC42LDEuNywwLjgsMi4zIGMwLjIsMC44LDAuNCwxLjcsMC44LDIuNWMwLjIsMSwwLjYsMi4xLDAuOCwyLjljMS45LTEuNSwzLjYtMy4xLDQuOC01LjJDNDAuNiwzMi40LDQxLjIsMzAuNyw0MS44LDI5eiIvPiYjeGE7PC9zdmc+;" vertex="1" parent="1">
          <mxGeometry x="840" y="130" width="48" height="48" as="geometry" />
        </mxCell>
        <mxCell id="aJsnQmM73jnc_cbVv0XD-15" value="Simplified supplychain" style="text;html=1;align=center;verticalAlign=middle;resizable=0;points=[];autosize=1;strokeColor=none;fillColor=none;" vertex="1" parent="1">
          <mxGeometry x="70" y="50" width="140" height="30" as="geometry" />
        </mxCell>
        <mxCell id="aJsnQmM73jnc_cbVv0XD-16" style="edgeStyle=orthogonalEdgeStyle;rounded=0;orthogonalLoop=1;jettySize=auto;html=1;" edge="1" source="aJsnQmM73jnc_cbVv0XD-17" target="aJsnQmM73jnc_cbVv0XD-23" parent="1">
          <mxGeometry relative="1" as="geometry" />
        </mxCell>
        <mxCell id="aJsnQmM73jnc_cbVv0XD-17" value="Developer" style="shape=image;verticalLabelPosition=bottom;verticalAlign=top;imageAspect=0;aspect=fixed;image=data:image/svg+xml,PHN2ZyB4bWxucz0iaHR0cDovL3d3dy53My5vcmcvMjAwMC9zdmciIHZlcnNpb249IjEiIHZpZXdCb3g9IjAgMCA0OCA0OCIgZW5hYmxlLWJhY2tncm91bmQ9Im5ldyAwIDAgNDggNDgiPiYjeGE7ICAgIDxwb2x5Z29uIGZpbGw9IiNGRjk4MDAiIHBvaW50cz0iMjQsMzcgMTksMzEgMTksMjUgMjksMjUgMjksMzEiLz4mI3hhOyAgICA8ZyBmaWxsPSIjRkZBNzI2Ij4mI3hhOyAgICAgICAgPGNpcmNsZSBjeD0iMzMiIGN5PSIxOSIgcj0iMiIvPiYjeGE7ICAgICAgICA8Y2lyY2xlIGN4PSIxNSIgY3k9IjE5IiByPSIyIi8+JiN4YTsgICAgPC9nPiYjeGE7ICAgIDxwYXRoIGZpbGw9IiNGRkI3NEQiIGQ9Ik0zMywxM2MwLTcuNi0xOC01LTE4LDBjMCwxLjEsMCw1LjksMCw3YzAsNSw0LDksOSw5czktNCw5LTlDMzMsMTguOSwzMywxNC4xLDMzLDEzeiIvPiYjeGE7ICAgIDxwYXRoIGZpbGw9IiM0MjQyNDIiIGQ9Ik0yNCw0Yy02LjEsMC0xMCw0LjktMTAsMTFjMCwwLjgsMCwyLjMsMCwyLjNsMiwxLjd2LTVsMTItNGw0LDR2NWwyLTEuN2MwLDAsMC0xLjUsMC0yLjNjMC00LTEtOC02LTlsLTEtMiBIMjR6Ii8+JiN4YTsgICAgPGcgZmlsbD0iIzc4NDcxOSI+JiN4YTsgICAgICAgIDxjaXJjbGUgY3g9IjI4IiBjeT0iMTkiIHI9IjEiLz4mI3hhOyAgICAgICAgPGNpcmNsZSBjeD0iMjAiIGN5PSIxOSIgcj0iMSIvPiYjeGE7ICAgIDwvZz4mI3hhOyAgICA8cG9seWdvbiBmaWxsPSIjZmZmIiBwb2ludHM9IjI0LDQzIDE5LDMxIDI0LDMyIDI5LDMxIi8+JiN4YTsgICAgPHBvbHlnb24gZmlsbD0iI0QzMkYyRiIgcG9pbnRzPSIyMywzNSAyMi4zLDM5LjUgMjQsNDMuNSAyNS43LDM5LjUgMjUsMzUgMjYsMzQgMjQsMzIgMjIsMzQiLz4mI3hhOyAgICA8cGF0aCBmaWxsPSIjNTQ2RTdBIiBkPSJNMjksMzFMMjksMzFsLTUsMTJsLTUtMTJjMCwwLTExLDItMTEsMTNoMzJDNDAsMzMsMjksMzEsMjksMzF6Ii8+JiN4YTs8L3N2Zz4=;labelBackgroundColor=#ffffff;" vertex="1" parent="1">
          <mxGeometry x="80" y="370" width="48" height="48" as="geometry" />
        </mxCell>
        <mxCell id="aJsnQmM73jnc_cbVv0XD-18" style="edgeStyle=orthogonalEdgeStyle;rounded=0;orthogonalLoop=1;jettySize=auto;html=1;entryX=0;entryY=0.5;entryDx=0;entryDy=0;" edge="1" source="aJsnQmM73jnc_cbVv0XD-19" target="aJsnQmM73jnc_cbVv0XD-25" parent="1">
          <mxGeometry relative="1" as="geometry" />
        </mxCell>
        <mxCell id="aJsnQmM73jnc_cbVv0XD-19" value="Build server" style="shape=image;verticalLabelPosition=bottom;verticalAlign=top;imageAspect=0;aspect=fixed;image=data:image/svg+xml,PHN2ZyB4bWxucz0iaHR0cDovL3d3dy53My5vcmcvMjAwMC9zdmciIHZlcnNpb249IjEiIHZpZXdCb3g9IjAgMCA0OCA0OCIgZW5hYmxlLWJhY2tncm91bmQ9Im5ldyAwIDAgNDggNDgiPiYjeGE7ICAgIDxwYXRoIGZpbGw9IiM5MEE0QUUiIGQ9Ik00MCwzNXY1SDh2LTVINHY1YzAsMi4yLDEuOCw0LDQsNGgzMmMyLjIsMCw0LTEuOCw0LTR2LTVINDB6Ii8+JiN4YTsgICAgPGcgZmlsbD0iIzE1NjVDMCI+JiN4YTsgICAgICAgIDxwb2x5Z29uIHBvaW50cz0iMjQsMjMuNCAxNywxNSAzMSwxNSIvPiYjeGE7ICAgICAgICA8cmVjdCB4PSIyMiIgeT0iNCIgd2lkdGg9IjQiIGhlaWdodD0iMTQiLz4mI3hhOyAgICAgICAgPHBhdGggZD0iTTMxLjUsMjYuOUwzMC44LDI4bDMuNSwxLjlsMC42LTEuMmMxLjYtMywyLjYtNC43LDMuNS01LjJDMzkuMywyMyw0MSwyMyw0NCwyM3YtNCBDMzYuMywxOSwzNS42LDE5LjQsMzEuNSwyNi45eiIvPiYjeGE7ICAgICAgICA8cG9seWdvbiBwb2ludHM9IjM4LjQsMzEgMjkuNCwzNSAyOCwyNSIvPiYjeGE7ICAgICAgICA8cGF0aCBkPSJNMTYuNSwyNi45bDAuNiwxLjJMMTMuNiwzMEwxMywyOC44Yy0xLjYtMy0yLjYtNC43LTMuNS01LjJDOC43LDIzLDcsMjMsNCwyM3YtNCBDMTEuNywxOSwxMi40LDE5LjQsMTYuNSwyNi45eiIvPiYjeGE7ICAgICAgICA8cG9seWdvbiBwb2ludHM9IjIwLDI1IDE4LjYsMzUgOS42LDMxIi8+JiN4YTsgICAgPC9nPiYjeGE7PC9zdmc+;" vertex="1" parent="1">
          <mxGeometry x="535" y="370" width="48" height="48" as="geometry" />
        </mxCell>
        <mxCell id="aJsnQmM73jnc_cbVv0XD-20" style="edgeStyle=orthogonalEdgeStyle;rounded=0;orthogonalLoop=1;jettySize=auto;html=1;entryX=0;entryY=0.5;entryDx=0;entryDy=0;" edge="1" source="aJsnQmM73jnc_cbVv0XD-21" target="aJsnQmM73jnc_cbVv0XD-19" parent="1">
          <mxGeometry relative="1" as="geometry" />
        </mxCell>
        <mxCell id="aJsnQmM73jnc_cbVv0XD-21" value="Version conrol" style="shape=image;verticalLabelPosition=bottom;verticalAlign=top;imageAspect=0;aspect=fixed;image=data:image/svg+xml,PHN2ZyB4bWxucz0iaHR0cDovL3d3dy53My5vcmcvMjAwMC9zdmciIHZlcnNpb249IjEiIHZpZXdCb3g9IjAgMCA0OCA0OCIgZW5hYmxlLWJhY2tncm91bmQ9Im5ldyAwIDAgNDggNDgiPiYjeGE7ICAgIDxwb2x5Z29uIGZpbGw9IiM5MENBRjkiIHBvaW50cz0iMzYsMTMgMzYsOSAyMiw5IDIyLDIyIDEzLDIyIDEzLDI2IDIyLDI2IDIyLDM5IDM2LDM5IDM2LDM1IDI2LDM1IDI2LDI2IDM2LDI2IDM2LDIyIDI2LDIyIDI2LDEzIi8+JiN4YTsgICAgPHJlY3QgeD0iNiIgeT0iMTciIGZpbGw9IiNEODFCNjAiIHdpZHRoPSIxMCIgaGVpZ2h0PSIxNCIvPiYjeGE7ICAgIDxyZWN0IHg9IjMyIiB5PSI2IiBmaWxsPSIjMjE5NkYzIiB3aWR0aD0iMTAiIGhlaWdodD0iMTAiLz4mI3hhOyAgICA8cmVjdCB4PSIzMiIgeT0iMzIiIGZpbGw9IiMyMTk2RjMiIHdpZHRoPSIxMCIgaGVpZ2h0PSIxMCIvPiYjeGE7ICAgIDxyZWN0IHg9IjMyIiB5PSIxOSIgZmlsbD0iIzIxOTZGMyIgd2lkdGg9IjEwIiBoZWlnaHQ9IjEwIi8+JiN4YTs8L3N2Zz4=;" vertex="1" parent="1">
          <mxGeometry x="380" y="370" width="48" height="48" as="geometry" />
        </mxCell>
        <mxCell id="aJsnQmM73jnc_cbVv0XD-22" style="edgeStyle=orthogonalEdgeStyle;rounded=0;orthogonalLoop=1;jettySize=auto;html=1;entryX=0;entryY=0.5;entryDx=0;entryDy=0;" edge="1" source="aJsnQmM73jnc_cbVv0XD-23" target="aJsnQmM73jnc_cbVv0XD-21" parent="1">
          <mxGeometry relative="1" as="geometry" />
        </mxCell>
        <mxCell id="aJsnQmM73jnc_cbVv0XD-23" value="Developer Laptop" style="pointerEvents=1;shadow=0;dashed=0;html=1;strokeColor=none;fillColor=#4495D1;labelPosition=center;verticalLabelPosition=bottom;verticalAlign=top;align=center;outlineConnect=0;shape=mxgraph.veeam.laptop;" vertex="1" parent="1">
          <mxGeometry x="230" y="372" width="58.4" height="44" as="geometry" />
        </mxCell>
        <mxCell id="aJsnQmM73jnc_cbVv0XD-24" style="edgeStyle=orthogonalEdgeStyle;rounded=0;orthogonalLoop=1;jettySize=auto;html=1;" edge="1" source="aJsnQmM73jnc_cbVv0XD-25" target="aJsnQmM73jnc_cbVv0XD-26" parent="1">
          <mxGeometry relative="1" as="geometry" />
        </mxCell>
        <mxCell id="aJsnQmM73jnc_cbVv0XD-25" value="Orchestration" style="shape=image;verticalLabelPosition=bottom;verticalAlign=top;imageAspect=0;aspect=fixed;image=data:image/svg+xml,PHN2ZyB4bWxucz0iaHR0cDovL3d3dy53My5vcmcvMjAwMC9zdmciIHZlcnNpb249IjEiIHZpZXdCb3g9IjAgMCA0OCA0OCIgZW5hYmxlLWJhY2tncm91bmQ9Im5ldyAwIDAgNDggNDgiPiYjeGE7ICAgIDxwYXRoIGZpbGw9IiM4QkMzNEEiIGQ9Ik00MywzNkgyOVYxNGgxMC42YzAuOSwwLDEuNiwwLjYsMS45LDEuNEw0NSwyNnY4QzQ1LDM1LjEsNDQuMSwzNiw0MywzNnoiLz4mI3hhOyAgICA8cGF0aCBmaWxsPSIjMzg4RTNDIiBkPSJNMjksMzZINWMtMS4xLDAtMi0wLjktMi0yVjljMC0xLjEsMC45LTIsMi0yaDIyYzEuMSwwLDIsMC45LDIsMlYzNnoiLz4mI3hhOyAgICA8ZyBmaWxsPSIjMzc0NzRGIj4mI3hhOyAgICAgICAgPGNpcmNsZSBjeD0iMzciIGN5PSIzNiIgcj0iNSIvPiYjeGE7ICAgICAgICA8Y2lyY2xlIGN4PSIxMyIgY3k9IjM2IiByPSI1Ii8+JiN4YTsgICAgPC9nPiYjeGE7ICAgIDxnIGZpbGw9IiM3ODkwOUMiPiYjeGE7ICAgICAgICA8Y2lyY2xlIGN4PSIzNyIgY3k9IjM2IiByPSIyIi8+JiN4YTsgICAgICAgIDxjaXJjbGUgY3g9IjEzIiBjeT0iMzYiIHI9IjIiLz4mI3hhOyAgICA8L2c+JiN4YTsgICAgPHBhdGggZmlsbD0iIzM3NDc0RiIgZD0iTTQxLDI1aC03Yy0wLjYsMC0xLTAuNC0xLTF2LTdjMC0wLjYsMC40LTEsMS0xaDUuM2MwLjQsMCwwLjgsMC4zLDAuOSwwLjdsMS43LDUuMmMwLDAuMSwwLjEsMC4yLDAuMSwwLjNWMjQgQzQyLDI0LjYsNDEuNiwyNSw0MSwyNXoiLz4mI3hhOyAgICA8cG9seWdvbiBmaWxsPSIjRENFREM4IiBwb2ludHM9IjIxLjgsMTMuOCAxMy45LDIxLjcgMTAuMiwxNy45IDgsMjAuMSAxMy45LDI2IDI0LDE1LjkiLz4mI3hhOzwvc3ZnPg==;" vertex="1" parent="1">
          <mxGeometry x="700" y="370" width="48" height="48" as="geometry" />
        </mxCell>
        <mxCell id="aJsnQmM73jnc_cbVv0XD-26" value="Production" style="shape=image;verticalLabelPosition=bottom;verticalAlign=top;imageAspect=0;aspect=fixed;image=data:image/svg+xml,PHN2ZyB4bWxucz0iaHR0cDovL3d3dy53My5vcmcvMjAwMC9zdmciIHZlcnNpb249IjEiIHZpZXdCb3g9IjAgMCA0OCA0OCIgZW5hYmxlLWJhY2tncm91bmQ9Im5ldyAwIDAgNDggNDgiPiYjeGE7ICAgIDxwYXRoIGZpbGw9IiM3Q0IzNDIiIGQ9Ik0yNCw0QzEzLDQsNCwxMyw0LDI0czksMjAsMjAsMjBzMjAtOSwyMC0yMFMzNSw0LDI0LDR6Ii8+JiN4YTsgICAgPHBhdGggZmlsbD0iIzAyNzdCRCIgZD0iTTQ1LDI0YzAsMTEuNy05LjUsMjEtMjEsMjFTMywzNS43LDMsMjRTMTIuMywzLDI0LDNTNDUsMTIuMyw0NSwyNHogTTIzLjgsMzMuN2MwLTAuNC0wLjItMC42LTAuNi0wLjggYy0xLjMtMC40LTIuNS0wLjQtMy42LTEuNWMtMC4yLTAuNC0wLjItMC44LTAuNC0xLjNjLTAuNC0wLjQtMS41LTAuNi0yLjEtMC44Yy0wLjgsMC0xLjcsMC0yLjcsMGMtMC40LDAtMS4xLDAtMS41LDAgYy0wLjYtMC4yLTEuMS0xLjEtMS41LTEuN2MwLTAuMiwwLTAuNi0wLjQtMC42Yy0wLjQtMC4yLTAuOCwwLjItMS4zLDBjLTAuMi0wLjItMC4yLTAuNC0wLjItMC42YzAtMC42LDAuNC0xLjMsMC44LTEuNyBjMC42LTAuNCwxLjMsMC4yLDEuOSwwLjJjMC4yLDAsMC4yLDAsMC40LDAuMmMwLjYsMC4yLDAuOCwxLDAuOCwxLjdjMCwwLjIsMCwwLjQsMCwwLjRjMCwwLjIsMC4yLDAuMiwwLjQsMC4yIGMwLjItMS4xLDAuMi0yLjEsMC40LTMuMmMwLTEuMywxLjMtMi41LDIuMy0yLjljMC40LTAuMiwwLjYsMC4yLDEuMSwwYzEuMy0wLjQsNC40LTEuNywzLjgtMy40Yy0wLjQtMS41LTEuNy0yLjktMy40LTIuNyBjLTAuNCwwLjItMC42LDAuNC0xLDAuNmMtMC42LDAuNC0xLjksMS43LTIuNSwxLjdjLTEuMS0wLjItMS4xLTEuNy0wLjgtMi4zYzAuMi0wLjgsMi4xLTMuNiwzLjQtMy4xYzAuMiwwLjIsMC42LDAuNiwwLjgsMC44IGMwLjQsMC4yLDEuMSwwLjIsMS43LDAuMmMwLjIsMCwwLjQsMCwwLjYtMC4yYzAuMi0wLjIsMC4yLTAuMiwwLjItMC40YzAtMC42LTAuNi0xLjMtMS0xLjdjLTAuNC0wLjQtMS4xLTAuOC0xLjctMS4xIGMtMi4xLTAuNi01LjUsMC4yLTcuMSwxLjdzLTIuOSw0LTMuOCw2LjFjLTAuNCwxLjMtMC44LDIuOS0xLDQuNGMtMC4yLDEtMC40LDEuOSwwLjIsMi45YzAuNiwxLjMsMS45LDIuNSwzLjIsMy40IGMwLjgsMC42LDIuNSwwLjYsMy40LDEuN2MwLjYsMC44LDAuNCwxLjksMC40LDIuOWMwLDEuMywwLjgsMi4zLDEuMywzLjRjMC4yLDAuNiwwLjQsMS41LDAuNiwyLjFjMCwwLjIsMC4yLDEuNSwwLjIsMS43IGMxLjMsMC42LDIuMywxLjMsMy44LDEuN2MwLjIsMCwxLTEuMywxLTEuNWMwLjYtMC42LDEuMS0xLjUsMS43LTEuOWMwLjQtMC4yLDAuOC0wLjQsMS4zLTAuOGMwLjQtMC40LDAuNi0xLjMsMC44LTEuOSBDMjMuOCwzNS4xLDI0LDM0LjMsMjMuOCwzMy43eiBNMjQuMiwxNC4zYzAuMiwwLDAuNC0wLjIsMC44LTAuNGMwLjYtMC40LDEuMy0xLjEsMS45LTEuNWMwLjYtMC40LDEuMy0xLjEsMS43LTEuNSBjMC42LTAuNCwxLjEtMS4zLDEuMy0xLjljMC4yLTAuNCwwLjgtMS4zLDAuNi0xLjljLTAuMi0wLjQtMS4zLTAuNi0xLjctMC44Yy0xLjctMC40LTMuMS0wLjYtNC44LTAuNmMtMC42LDAtMS41LDAuMi0xLjcsMC44IGMtMC4yLDEuMSwwLjYsMC44LDEuNSwxLjFjMCwwLDAuMiwxLjcsMC4yLDEuOWMwLjIsMS0wLjQsMS43LTAuNCwyLjdjMCwwLjYsMCwxLjcsMC40LDIuMUwyNC4yLDE0LjN6IE00MS44LDI5IGMwLjItMC40LDAuMi0xLjEsMC40LTEuNWMwLjItMSwwLjItMi4xLDAuMi0zLjFjMC0yLjEtMC4yLTQuMi0wLjgtNi4xYy0wLjQtMC42LTAuNi0xLjMtMC44LTEuOWMtMC40LTEuMS0xLTIuMS0xLjktMi45IGMtMC44LTEuMS0xLjktNC0zLjgtMy4xYy0wLjYsMC4yLTEsMS0xLjUsMS41Yy0wLjQsMC42LTAuOCwxLjMtMS4zLDEuOWMtMC4yLDAuMi0wLjQsMC42LTAuMiwwLjhjMCwwLjIsMC4yLDAuMiwwLjQsMC4yIGMwLjQsMC4yLDAuNiwwLjIsMSwwLjRjMC4yLDAsMC40LDAuMiwwLjIsMC40YzAsMCwwLDAuMi0wLjIsMC4yYy0xLDEuMS0yLjEsMS45LTMuMSwyLjljLTAuMiwwLjItMC40LDAuNi0wLjQsMC44IGMwLDAuMiwwLjIsMC4yLDAuMiwwLjRjMCwwLjItMC4yLDAuMi0wLjQsMC40Yy0wLjQsMC4yLTAuOCwwLjQtMS4xLDAuNmMtMC4yLDAuNCwwLDEuMS0wLjIsMS41Yy0wLjIsMS4xLTAuOCwxLjktMS4zLDIuOSBjLTAuNCwwLjYtMC42LDEuMy0xLDEuOWMwLDAuOC0wLjIsMS41LDAuMiwyLjFjMSwxLjUsMi45LDAuNiw0LjQsMS4zYzAuNCwwLjIsMC44LDAuMiwxLjEsMC42YzAuNiwwLjYsMC42LDEuNywwLjgsMi4zIGMwLjIsMC44LDAuNCwxLjcsMC44LDIuNWMwLjIsMSwwLjYsMi4xLDAuOCwyLjljMS45LTEuNSwzLjYtMy4xLDQuOC01LjJDNDAuNiwzMi40LDQxLjIsMzAuNyw0MS44LDI5eiIvPiYjeGE7PC9zdmc+;" vertex="1" parent="1">
          <mxGeometry x="840" y="370" width="48" height="48" as="geometry" />
        </mxCell>
        <mxCell id="aJsnQmM73jnc_cbVv0XD-27" value="Supply chain with dependencies" style="text;html=1;align=center;verticalAlign=middle;resizable=0;points=[];autosize=1;strokeColor=none;fillColor=none;" vertex="1" parent="1">
          <mxGeometry x="70" y="236" width="190" height="30" as="geometry" />
        </mxCell>
        <mxCell id="aJsnQmM73jnc_cbVv0XD-33" style="edgeStyle=orthogonalEdgeStyle;rounded=0;orthogonalLoop=1;jettySize=auto;html=1;" edge="1" parent="1" source="aJsnQmM73jnc_cbVv0XD-28" target="aJsnQmM73jnc_cbVv0XD-23">
          <mxGeometry relative="1" as="geometry" />
        </mxCell>
        <mxCell id="aJsnQmM73jnc_cbVv0XD-34" style="edgeStyle=orthogonalEdgeStyle;rounded=0;orthogonalLoop=1;jettySize=auto;html=1;" edge="1" parent="1" source="aJsnQmM73jnc_cbVv0XD-28">
          <mxGeometry relative="1" as="geometry">
            <mxPoint x="560" y="360" as="targetPoint" />
          </mxGeometry>
        </mxCell>
        <mxCell id="aJsnQmM73jnc_cbVv0XD-28" value="Package registry" style="shape=image;verticalLabelPosition=bottom;verticalAlign=top;imageAspect=0;aspect=fixed;image=data:image/svg+xml,PHN2ZyB4bWxucz0iaHR0cDovL3d3dy53My5vcmcvMjAwMC9zdmciIHZlcnNpb249IjEiIHZpZXdCb3g9IjAgMCA0OCA0OCIgZW5hYmxlLWJhY2tncm91bmQ9Im5ldyAwIDAgNDggNDgiPiYjeGE7ICAgIDxnIGZpbGw9IiNEMUM0RTkiPiYjeGE7ICAgICAgICA8cGF0aCBkPSJNMzgsN0gxMEM4LjksNyw4LDcuOSw4LDl2NmMwLDEuMSwwLjksMiwyLDJoMjhjMS4xLDAsMi0wLjksMi0yVjlDNDAsNy45LDM5LjEsNywzOCw3eiIvPiYjeGE7ICAgICAgICA8cGF0aCBkPSJNMzgsMTlIMTBjLTEuMSwwLTIsMC45LTIsMnY2YzAsMS4xLDAuOSwyLDIsMmgyOGMxLjEsMCwyLTAuOSwyLTJ2LTZDNDAsMTkuOSwzOS4xLDE5LDM4LDE5eiIvPiYjeGE7ICAgICAgICA8cGF0aCBkPSJNMzgsMzFIMTBjLTEuMSwwLTIsMC45LTIsMnY2YzAsMS4xLDAuOSwyLDIsMmgyOGMxLjEsMCwyLTAuOSwyLTJ2LTZDNDAsMzEuOSwzOS4xLDMxLDM4LDMxeiIvPiYjeGE7ICAgIDwvZz4mI3hhOyAgICA8Y2lyY2xlIGZpbGw9IiM0M0EwNDciIGN4PSIzOCIgY3k9IjM4IiByPSIxMCIvPiYjeGE7ICAgIDxwb2x5Z29uIGZpbGw9IiNEQ0VEQzgiIHBvaW50cz0iNDIuNSwzMy4zIDM2LjgsMzkgMzQuMSwzNi4zIDMyLDM4LjUgMzYuOCw0My4zIDQ0LjYsMzUuNSIvPiYjeGE7PC9zdmc+;" vertex="1" parent="1">
          <mxGeometry x="380" y="266" width="48" height="48" as="geometry" />
        </mxCell>
        <mxCell id="aJsnQmM73jnc_cbVv0XD-35" style="edgeStyle=orthogonalEdgeStyle;rounded=0;orthogonalLoop=1;jettySize=auto;html=1;" edge="1" source="aJsnQmM73jnc_cbVv0XD-36" target="aJsnQmM73jnc_cbVv0XD-42" parent="1">
          <mxGeometry relative="1" as="geometry" />
        </mxCell>
        <mxCell id="aJsnQmM73jnc_cbVv0XD-36" value="Developer" style="shape=image;verticalLabelPosition=bottom;verticalAlign=top;imageAspect=0;aspect=fixed;image=data:image/svg+xml,PHN2ZyB4bWxucz0iaHR0cDovL3d3dy53My5vcmcvMjAwMC9zdmciIHZlcnNpb249IjEiIHZpZXdCb3g9IjAgMCA0OCA0OCIgZW5hYmxlLWJhY2tncm91bmQ9Im5ldyAwIDAgNDggNDgiPiYjeGE7ICAgIDxwb2x5Z29uIGZpbGw9IiNGRjk4MDAiIHBvaW50cz0iMjQsMzcgMTksMzEgMTksMjUgMjksMjUgMjksMzEiLz4mI3hhOyAgICA8ZyBmaWxsPSIjRkZBNzI2Ij4mI3hhOyAgICAgICAgPGNpcmNsZSBjeD0iMzMiIGN5PSIxOSIgcj0iMiIvPiYjeGE7ICAgICAgICA8Y2lyY2xlIGN4PSIxNSIgY3k9IjE5IiByPSIyIi8+JiN4YTsgICAgPC9nPiYjeGE7ICAgIDxwYXRoIGZpbGw9IiNGRkI3NEQiIGQ9Ik0zMywxM2MwLTcuNi0xOC01LTE4LDBjMCwxLjEsMCw1LjksMCw3YzAsNSw0LDksOSw5czktNCw5LTlDMzMsMTguOSwzMywxNC4xLDMzLDEzeiIvPiYjeGE7ICAgIDxwYXRoIGZpbGw9IiM0MjQyNDIiIGQ9Ik0yNCw0Yy02LjEsMC0xMCw0LjktMTAsMTFjMCwwLjgsMCwyLjMsMCwyLjNsMiwxLjd2LTVsMTItNGw0LDR2NWwyLTEuN2MwLDAsMC0xLjUsMC0yLjNjMC00LTEtOC02LTlsLTEtMiBIMjR6Ii8+JiN4YTsgICAgPGcgZmlsbD0iIzc4NDcxOSI+JiN4YTsgICAgICAgIDxjaXJjbGUgY3g9IjI4IiBjeT0iMTkiIHI9IjEiLz4mI3hhOyAgICAgICAgPGNpcmNsZSBjeD0iMjAiIGN5PSIxOSIgcj0iMSIvPiYjeGE7ICAgIDwvZz4mI3hhOyAgICA8cG9seWdvbiBmaWxsPSIjZmZmIiBwb2ludHM9IjI0LDQzIDE5LDMxIDI0LDMyIDI5LDMxIi8+JiN4YTsgICAgPHBvbHlnb24gZmlsbD0iI0QzMkYyRiIgcG9pbnRzPSIyMywzNSAyMi4zLDM5LjUgMjQsNDMuNSAyNS43LDM5LjUgMjUsMzUgMjYsMzQgMjQsMzIgMjIsMzQiLz4mI3hhOyAgICA8cGF0aCBmaWxsPSIjNTQ2RTdBIiBkPSJNMjksMzFMMjksMzFsLTUsMTJsLTUtMTJjMCwwLTExLDItMTEsMTNoMzJDNDAsMzMsMjksMzEsMjksMzF6Ii8+JiN4YTs8L3N2Zz4=;labelBackgroundColor=#ffffff;" vertex="1" parent="1">
          <mxGeometry x="80" y="674" width="48" height="48" as="geometry" />
        </mxCell>
        <mxCell id="aJsnQmM73jnc_cbVv0XD-37" style="edgeStyle=orthogonalEdgeStyle;rounded=0;orthogonalLoop=1;jettySize=auto;html=1;entryX=0;entryY=0.5;entryDx=0;entryDy=0;" edge="1" source="aJsnQmM73jnc_cbVv0XD-38" target="aJsnQmM73jnc_cbVv0XD-44" parent="1">
          <mxGeometry relative="1" as="geometry" />
        </mxCell>
        <mxCell id="aJsnQmM73jnc_cbVv0XD-38" value="Build server" style="shape=image;verticalLabelPosition=bottom;verticalAlign=top;imageAspect=0;aspect=fixed;image=data:image/svg+xml,PHN2ZyB4bWxucz0iaHR0cDovL3d3dy53My5vcmcvMjAwMC9zdmciIHZlcnNpb249IjEiIHZpZXdCb3g9IjAgMCA0OCA0OCIgZW5hYmxlLWJhY2tncm91bmQ9Im5ldyAwIDAgNDggNDgiPiYjeGE7ICAgIDxwYXRoIGZpbGw9IiM5MEE0QUUiIGQ9Ik00MCwzNXY1SDh2LTVINHY1YzAsMi4yLDEuOCw0LDQsNGgzMmMyLjIsMCw0LTEuOCw0LTR2LTVINDB6Ii8+JiN4YTsgICAgPGcgZmlsbD0iIzE1NjVDMCI+JiN4YTsgICAgICAgIDxwb2x5Z29uIHBvaW50cz0iMjQsMjMuNCAxNywxNSAzMSwxNSIvPiYjeGE7ICAgICAgICA8cmVjdCB4PSIyMiIgeT0iNCIgd2lkdGg9IjQiIGhlaWdodD0iMTQiLz4mI3hhOyAgICAgICAgPHBhdGggZD0iTTMxLjUsMjYuOUwzMC44LDI4bDMuNSwxLjlsMC42LTEuMmMxLjYtMywyLjYtNC43LDMuNS01LjJDMzkuMywyMyw0MSwyMyw0NCwyM3YtNCBDMzYuMywxOSwzNS42LDE5LjQsMzEuNSwyNi45eiIvPiYjeGE7ICAgICAgICA8cG9seWdvbiBwb2ludHM9IjM4LjQsMzEgMjkuNCwzNSAyOCwyNSIvPiYjeGE7ICAgICAgICA8cGF0aCBkPSJNMTYuNSwyNi45bDAuNiwxLjJMMTMuNiwzMEwxMywyOC44Yy0xLjYtMy0yLjYtNC43LTMuNS01LjJDOC43LDIzLDcsMjMsNCwyM3YtNCBDMTEuNywxOSwxMi40LDE5LjQsMTYuNSwyNi45eiIvPiYjeGE7ICAgICAgICA8cG9seWdvbiBwb2ludHM9IjIwLDI1IDE4LjYsMzUgOS42LDMxIi8+JiN4YTsgICAgPC9nPiYjeGE7PC9zdmc+;" vertex="1" parent="1">
          <mxGeometry x="535" y="674" width="48" height="48" as="geometry" />
        </mxCell>
        <mxCell id="aJsnQmM73jnc_cbVv0XD-39" style="edgeStyle=orthogonalEdgeStyle;rounded=0;orthogonalLoop=1;jettySize=auto;html=1;entryX=0;entryY=0.5;entryDx=0;entryDy=0;" edge="1" source="aJsnQmM73jnc_cbVv0XD-40" target="aJsnQmM73jnc_cbVv0XD-38" parent="1">
          <mxGeometry relative="1" as="geometry" />
        </mxCell>
        <mxCell id="aJsnQmM73jnc_cbVv0XD-40" value="Version conrol" style="shape=image;verticalLabelPosition=bottom;verticalAlign=top;imageAspect=0;aspect=fixed;image=data:image/svg+xml,PHN2ZyB4bWxucz0iaHR0cDovL3d3dy53My5vcmcvMjAwMC9zdmciIHZlcnNpb249IjEiIHZpZXdCb3g9IjAgMCA0OCA0OCIgZW5hYmxlLWJhY2tncm91bmQ9Im5ldyAwIDAgNDggNDgiPiYjeGE7ICAgIDxwb2x5Z29uIGZpbGw9IiM5MENBRjkiIHBvaW50cz0iMzYsMTMgMzYsOSAyMiw5IDIyLDIyIDEzLDIyIDEzLDI2IDIyLDI2IDIyLDM5IDM2LDM5IDM2LDM1IDI2LDM1IDI2LDI2IDM2LDI2IDM2LDIyIDI2LDIyIDI2LDEzIi8+JiN4YTsgICAgPHJlY3QgeD0iNiIgeT0iMTciIGZpbGw9IiNEODFCNjAiIHdpZHRoPSIxMCIgaGVpZ2h0PSIxNCIvPiYjeGE7ICAgIDxyZWN0IHg9IjMyIiB5PSI2IiBmaWxsPSIjMjE5NkYzIiB3aWR0aD0iMTAiIGhlaWdodD0iMTAiLz4mI3hhOyAgICA8cmVjdCB4PSIzMiIgeT0iMzIiIGZpbGw9IiMyMTk2RjMiIHdpZHRoPSIxMCIgaGVpZ2h0PSIxMCIvPiYjeGE7ICAgIDxyZWN0IHg9IjMyIiB5PSIxOSIgZmlsbD0iIzIxOTZGMyIgd2lkdGg9IjEwIiBoZWlnaHQ9IjEwIi8+JiN4YTs8L3N2Zz4=;" vertex="1" parent="1">
          <mxGeometry x="380" y="674" width="48" height="48" as="geometry" />
        </mxCell>
        <mxCell id="aJsnQmM73jnc_cbVv0XD-41" style="edgeStyle=orthogonalEdgeStyle;rounded=0;orthogonalLoop=1;jettySize=auto;html=1;entryX=0;entryY=0.5;entryDx=0;entryDy=0;" edge="1" source="aJsnQmM73jnc_cbVv0XD-42" target="aJsnQmM73jnc_cbVv0XD-40" parent="1">
          <mxGeometry relative="1" as="geometry" />
        </mxCell>
        <mxCell id="aJsnQmM73jnc_cbVv0XD-42" value="Developer Laptop" style="pointerEvents=1;shadow=0;dashed=0;html=1;strokeColor=none;fillColor=#4495D1;labelPosition=center;verticalLabelPosition=bottom;verticalAlign=top;align=center;outlineConnect=0;shape=mxgraph.veeam.laptop;" vertex="1" parent="1">
          <mxGeometry x="230" y="676" width="58.4" height="44" as="geometry" />
        </mxCell>
        <mxCell id="aJsnQmM73jnc_cbVv0XD-43" style="edgeStyle=orthogonalEdgeStyle;rounded=0;orthogonalLoop=1;jettySize=auto;html=1;" edge="1" source="aJsnQmM73jnc_cbVv0XD-44" target="aJsnQmM73jnc_cbVv0XD-45" parent="1">
          <mxGeometry relative="1" as="geometry" />
        </mxCell>
        <mxCell id="aJsnQmM73jnc_cbVv0XD-44" value="Orchestration" style="shape=image;verticalLabelPosition=bottom;verticalAlign=top;imageAspect=0;aspect=fixed;image=data:image/svg+xml,PHN2ZyB4bWxucz0iaHR0cDovL3d3dy53My5vcmcvMjAwMC9zdmciIHZlcnNpb249IjEiIHZpZXdCb3g9IjAgMCA0OCA0OCIgZW5hYmxlLWJhY2tncm91bmQ9Im5ldyAwIDAgNDggNDgiPiYjeGE7ICAgIDxwYXRoIGZpbGw9IiM4QkMzNEEiIGQ9Ik00MywzNkgyOVYxNGgxMC42YzAuOSwwLDEuNiwwLjYsMS45LDEuNEw0NSwyNnY4QzQ1LDM1LjEsNDQuMSwzNiw0MywzNnoiLz4mI3hhOyAgICA8cGF0aCBmaWxsPSIjMzg4RTNDIiBkPSJNMjksMzZINWMtMS4xLDAtMi0wLjktMi0yVjljMC0xLjEsMC45LTIsMi0yaDIyYzEuMSwwLDIsMC45LDIsMlYzNnoiLz4mI3hhOyAgICA8ZyBmaWxsPSIjMzc0NzRGIj4mI3hhOyAgICAgICAgPGNpcmNsZSBjeD0iMzciIGN5PSIzNiIgcj0iNSIvPiYjeGE7ICAgICAgICA8Y2lyY2xlIGN4PSIxMyIgY3k9IjM2IiByPSI1Ii8+JiN4YTsgICAgPC9nPiYjeGE7ICAgIDxnIGZpbGw9IiM3ODkwOUMiPiYjeGE7ICAgICAgICA8Y2lyY2xlIGN4PSIzNyIgY3k9IjM2IiByPSIyIi8+JiN4YTsgICAgICAgIDxjaXJjbGUgY3g9IjEzIiBjeT0iMzYiIHI9IjIiLz4mI3hhOyAgICA8L2c+JiN4YTsgICAgPHBhdGggZmlsbD0iIzM3NDc0RiIgZD0iTTQxLDI1aC03Yy0wLjYsMC0xLTAuNC0xLTF2LTdjMC0wLjYsMC40LTEsMS0xaDUuM2MwLjQsMCwwLjgsMC4zLDAuOSwwLjdsMS43LDUuMmMwLDAuMSwwLjEsMC4yLDAuMSwwLjNWMjQgQzQyLDI0LjYsNDEuNiwyNSw0MSwyNXoiLz4mI3hhOyAgICA8cG9seWdvbiBmaWxsPSIjRENFREM4IiBwb2ludHM9IjIxLjgsMTMuOCAxMy45LDIxLjcgMTAuMiwxNy45IDgsMjAuMSAxMy45LDI2IDI0LDE1LjkiLz4mI3hhOzwvc3ZnPg==;" vertex="1" parent="1">
          <mxGeometry x="700" y="674" width="48" height="48" as="geometry" />
        </mxCell>
        <mxCell id="aJsnQmM73jnc_cbVv0XD-45" value="Production" style="shape=image;verticalLabelPosition=bottom;verticalAlign=top;imageAspect=0;aspect=fixed;image=data:image/svg+xml,PHN2ZyB4bWxucz0iaHR0cDovL3d3dy53My5vcmcvMjAwMC9zdmciIHZlcnNpb249IjEiIHZpZXdCb3g9IjAgMCA0OCA0OCIgZW5hYmxlLWJhY2tncm91bmQ9Im5ldyAwIDAgNDggNDgiPiYjeGE7ICAgIDxwYXRoIGZpbGw9IiM3Q0IzNDIiIGQ9Ik0yNCw0QzEzLDQsNCwxMyw0LDI0czksMjAsMjAsMjBzMjAtOSwyMC0yMFMzNSw0LDI0LDR6Ii8+JiN4YTsgICAgPHBhdGggZmlsbD0iIzAyNzdCRCIgZD0iTTQ1LDI0YzAsMTEuNy05LjUsMjEtMjEsMjFTMywzNS43LDMsMjRTMTIuMywzLDI0LDNTNDUsMTIuMyw0NSwyNHogTTIzLjgsMzMuN2MwLTAuNC0wLjItMC42LTAuNi0wLjggYy0xLjMtMC40LTIuNS0wLjQtMy42LTEuNWMtMC4yLTAuNC0wLjItMC44LTAuNC0xLjNjLTAuNC0wLjQtMS41LTAuNi0yLjEtMC44Yy0wLjgsMC0xLjcsMC0yLjcsMGMtMC40LDAtMS4xLDAtMS41LDAgYy0wLjYtMC4yLTEuMS0xLjEtMS41LTEuN2MwLTAuMiwwLTAuNi0wLjQtMC42Yy0wLjQtMC4yLTAuOCwwLjItMS4zLDBjLTAuMi0wLjItMC4yLTAuNC0wLjItMC42YzAtMC42LDAuNC0xLjMsMC44LTEuNyBjMC42LTAuNCwxLjMsMC4yLDEuOSwwLjJjMC4yLDAsMC4yLDAsMC40LDAuMmMwLjYsMC4yLDAuOCwxLDAuOCwxLjdjMCwwLjIsMCwwLjQsMCwwLjRjMCwwLjIsMC4yLDAuMiwwLjQsMC4yIGMwLjItMS4xLDAuMi0yLjEsMC40LTMuMmMwLTEuMywxLjMtMi41LDIuMy0yLjljMC40LTAuMiwwLjYsMC4yLDEuMSwwYzEuMy0wLjQsNC40LTEuNywzLjgtMy40Yy0wLjQtMS41LTEuNy0yLjktMy40LTIuNyBjLTAuNCwwLjItMC42LDAuNC0xLDAuNmMtMC42LDAuNC0xLjksMS43LTIuNSwxLjdjLTEuMS0wLjItMS4xLTEuNy0wLjgtMi4zYzAuMi0wLjgsMi4xLTMuNiwzLjQtMy4xYzAuMiwwLjIsMC42LDAuNiwwLjgsMC44IGMwLjQsMC4yLDEuMSwwLjIsMS43LDAuMmMwLjIsMCwwLjQsMCwwLjYtMC4yYzAuMi0wLjIsMC4yLTAuMiwwLjItMC40YzAtMC42LTAuNi0xLjMtMS0xLjdjLTAuNC0wLjQtMS4xLTAuOC0xLjctMS4xIGMtMi4xLTAuNi01LjUsMC4yLTcuMSwxLjdzLTIuOSw0LTMuOCw2LjFjLTAuNCwxLjMtMC44LDIuOS0xLDQuNGMtMC4yLDEtMC40LDEuOSwwLjIsMi45YzAuNiwxLjMsMS45LDIuNSwzLjIsMy40IGMwLjgsMC42LDIuNSwwLjYsMy40LDEuN2MwLjYsMC44LDAuNCwxLjksMC40LDIuOWMwLDEuMywwLjgsMi4zLDEuMywzLjRjMC4yLDAuNiwwLjQsMS41LDAuNiwyLjFjMCwwLjIsMC4yLDEuNSwwLjIsMS43IGMxLjMsMC42LDIuMywxLjMsMy44LDEuN2MwLjIsMCwxLTEuMywxLTEuNWMwLjYtMC42LDEuMS0xLjUsMS43LTEuOWMwLjQtMC4yLDAuOC0wLjQsMS4zLTAuOGMwLjQtMC40LDAuNi0xLjMsMC44LTEuOSBDMjMuOCwzNS4xLDI0LDM0LjMsMjMuOCwzMy43eiBNMjQuMiwxNC4zYzAuMiwwLDAuNC0wLjIsMC44LTAuNGMwLjYtMC40LDEuMy0xLjEsMS45LTEuNWMwLjYtMC40LDEuMy0xLjEsMS43LTEuNSBjMC42LTAuNCwxLjEtMS4zLDEuMy0xLjljMC4yLTAuNCwwLjgtMS4zLDAuNi0xLjljLTAuMi0wLjQtMS4zLTAuNi0xLjctMC44Yy0xLjctMC40LTMuMS0wLjYtNC44LTAuNmMtMC42LDAtMS41LDAuMi0xLjcsMC44IGMtMC4yLDEuMSwwLjYsMC44LDEuNSwxLjFjMCwwLDAuMiwxLjcsMC4yLDEuOWMwLjIsMS0wLjQsMS43LTAuNCwyLjdjMCwwLjYsMCwxLjcsMC40LDIuMUwyNC4yLDE0LjN6IE00MS44LDI5IGMwLjItMC40LDAuMi0xLjEsMC40LTEuNWMwLjItMSwwLjItMi4xLDAuMi0zLjFjMC0yLjEtMC4yLTQuMi0wLjgtNi4xYy0wLjQtMC42LTAuNi0xLjMtMC44LTEuOWMtMC40LTEuMS0xLTIuMS0xLjktMi45IGMtMC44LTEuMS0xLjktNC0zLjgtMy4xYy0wLjYsMC4yLTEsMS0xLjUsMS41Yy0wLjQsMC42LTAuOCwxLjMtMS4zLDEuOWMtMC4yLDAuMi0wLjQsMC42LTAuMiwwLjhjMCwwLjIsMC4yLDAuMiwwLjQsMC4yIGMwLjQsMC4yLDAuNiwwLjIsMSwwLjRjMC4yLDAsMC40LDAuMiwwLjIsMC40YzAsMCwwLDAuMi0wLjIsMC4yYy0xLDEuMS0yLjEsMS45LTMuMSwyLjljLTAuMiwwLjItMC40LDAuNi0wLjQsMC44IGMwLDAuMiwwLjIsMC4yLDAuMiwwLjRjMCwwLjItMC4yLDAuMi0wLjQsMC40Yy0wLjQsMC4yLTAuOCwwLjQtMS4xLDAuNmMtMC4yLDAuNCwwLDEuMS0wLjIsMS41Yy0wLjIsMS4xLTAuOCwxLjktMS4zLDIuOSBjLTAuNCwwLjYtMC42LDEuMy0xLDEuOWMwLDAuOC0wLjIsMS41LDAuMiwyLjFjMSwxLjUsMi45LDAuNiw0LjQsMS4zYzAuNCwwLjIsMC44LDAuMiwxLjEsMC42YzAuNiwwLjYsMC42LDEuNywwLjgsMi4zIGMwLjIsMC44LDAuNCwxLjcsMC44LDIuNWMwLjIsMSwwLjYsMi4xLDAuOCwyLjljMS45LTEuNSwzLjYtMy4xLDQuOC01LjJDNDAuNiwzMi40LDQxLjIsMzAuNyw0MS44LDI5eiIvPiYjeGE7PC9zdmc+;" vertex="1" parent="1">
          <mxGeometry x="840" y="674" width="48" height="48" as="geometry" />
        </mxCell>
        <mxCell id="aJsnQmM73jnc_cbVv0XD-46" value="Supply chain with dependencies and attacler" style="text;html=1;align=center;verticalAlign=middle;resizable=0;points=[];autosize=1;strokeColor=none;fillColor=none;" vertex="1" parent="1">
          <mxGeometry x="70" y="540" width="260" height="30" as="geometry" />
        </mxCell>
        <mxCell id="aJsnQmM73jnc_cbVv0XD-47" style="edgeStyle=orthogonalEdgeStyle;rounded=0;orthogonalLoop=1;jettySize=auto;html=1;" edge="1" source="aJsnQmM73jnc_cbVv0XD-49" target="aJsnQmM73jnc_cbVv0XD-42" parent="1">
          <mxGeometry relative="1" as="geometry" />
        </mxCell>
        <mxCell id="aJsnQmM73jnc_cbVv0XD-48" style="edgeStyle=orthogonalEdgeStyle;rounded=0;orthogonalLoop=1;jettySize=auto;html=1;" edge="1" source="aJsnQmM73jnc_cbVv0XD-49" parent="1">
          <mxGeometry relative="1" as="geometry">
            <mxPoint x="560" y="664" as="targetPoint" />
          </mxGeometry>
        </mxCell>
        <mxCell id="aJsnQmM73jnc_cbVv0XD-49" value="Package registry" style="shape=image;verticalLabelPosition=bottom;verticalAlign=top;imageAspect=0;aspect=fixed;image=data:image/svg+xml,PHN2ZyB4bWxucz0iaHR0cDovL3d3dy53My5vcmcvMjAwMC9zdmciIHZlcnNpb249IjEiIHZpZXdCb3g9IjAgMCA0OCA0OCIgZW5hYmxlLWJhY2tncm91bmQ9Im5ldyAwIDAgNDggNDgiPiYjeGE7ICAgIDxnIGZpbGw9IiNEMUM0RTkiPiYjeGE7ICAgICAgICA8cGF0aCBkPSJNMzgsN0gxMEM4LjksNyw4LDcuOSw4LDl2NmMwLDEuMSwwLjksMiwyLDJoMjhjMS4xLDAsMi0wLjksMi0yVjlDNDAsNy45LDM5LjEsNywzOCw3eiIvPiYjeGE7ICAgICAgICA8cGF0aCBkPSJNMzgsMTlIMTBjLTEuMSwwLTIsMC45LTIsMnY2YzAsMS4xLDAuOSwyLDIsMmgyOGMxLjEsMCwyLTAuOSwyLTJ2LTZDNDAsMTkuOSwzOS4xLDE5LDM4LDE5eiIvPiYjeGE7ICAgICAgICA8cGF0aCBkPSJNMzgsMzFIMTBjLTEuMSwwLTIsMC45LTIsMnY2YzAsMS4xLDAuOSwyLDIsMmgyOGMxLjEsMCwyLTAuOSwyLTJ2LTZDNDAsMzEuOSwzOS4xLDMxLDM4LDMxeiIvPiYjeGE7ICAgIDwvZz4mI3hhOyAgICA8Y2lyY2xlIGZpbGw9IiM0M0EwNDciIGN4PSIzOCIgY3k9IjM4IiByPSIxMCIvPiYjeGE7ICAgIDxwb2x5Z29uIGZpbGw9IiNEQ0VEQzgiIHBvaW50cz0iNDIuNSwzMy4zIDM2LjgsMzkgMzQuMSwzNi4zIDMyLDM4LjUgMzYuOCw0My4zIDQ0LjYsMzUuNSIvPiYjeGE7PC9zdmc+;" vertex="1" parent="1">
          <mxGeometry x="380" y="570" width="48" height="48" as="geometry" />
        </mxCell>
        <mxCell id="aJsnQmM73jnc_cbVv0XD-50" value="" style="shape=image;verticalLabelPosition=bottom;verticalAlign=top;imageAspect=0;aspect=fixed;image=data:image/svg+xml,PHN2ZyB4bWxucz0iaHR0cDovL3d3dy53My5vcmcvMjAwMC9zdmciIHZlcnNpb249IjEiIHZpZXdCb3g9IjAgMCA0OCA0OCIgZW5hYmxlLWJhY2tncm91bmQ9Im5ldyAwIDAgNDggNDgiPiYjeGE7ICAgIDxwYXRoIGZpbGw9IiMyRTdEMzIiIGQ9Ik01LDI0YzAsMTguOSwxNC44LDE5LDE3LDE5czQsMCw0LDBTMjQuMSwyNi41LDUsMjR6Ii8+JiN4YTsgICAgPHJlY3QgeD0iMjIiIHk9IjI2IiBmaWxsPSIjMzg4RTNDIiB3aWR0aD0iNCIgaGVpZ2h0PSIxNyIvPiYjeGE7ICAgIDxwYXRoIGZpbGw9IiNDNjI4MjgiIGQ9Ik0zNCwxNmMwLDUuMS01LjIsOC4yLTgsOC4ycy0yLTMuMS0yLTguMnM1LTkuMiw1LTkuMlMzNCwxMC45LDM0LDE2eiIvPiYjeGE7ICAgIDxwYXRoIGZpbGw9IiNDNjI4MjgiIGQ9Ik0xNCwxNmMwLDUuMSw1LjIsOC4yLDgsOC4yczItMy4xLDItOC4ycy01LTkuMi01LTkuMlMxNCwxMC45LDE0LDE2eiIvPiYjeGE7ICAgIDxwYXRoIGZpbGw9IiNFNTM5MzUiIGQ9Ik0yNCwyN2MtMi4yLTEuNi0xLjktNC41LDIuNC04LjhDMzAuOCwxMy44LDMyLDcsMzIsN3M1LDMuNCw1LDlDMzcsMjEuOSwzMS4zLDI3LDI0LDI3eiIvPiYjeGE7ICAgIDxwYXRoIGZpbGw9IiNFNTM5MzUiIGQ9Ik0yNCwyN2MyLjItMS42LDEuOS00LjUtMi40LTguOEMxNy4yLDEzLjgsMTYsNywxNiw3cy01LDMuNC01LDlDMTEsMjEuOSwxNi43LDI3LDI0LDI3eiIvPiYjeGE7ICAgIDxwYXRoIGZpbGw9IiNGNDQzMzYiIGQ9Ik0zMCwxNmMwLDYuMS0yLjcsMTEtNiwxMXMtNi00LjktNi0xMXM2LTExLDYtMTFTMzAsOS45LDMwLDE2eiIvPiYjeGE7ICAgIDxwYXRoIGZpbGw9IiM0Q0FGNTAiIGQ9Ik0yMiw0M2MwLDAsMS44LDAsNCwwczE3LTAuMSwxNy0xOUMyMy45LDI2LjUsMjIsNDMsMjIsNDN6Ii8+JiN4YTs8L3N2Zz4=;" vertex="1" parent="1">
          <mxGeometry x="235.2" y="661" width="48" height="48" as="geometry" />
        </mxCell>
        <mxCell id="aJsnQmM73jnc_cbVv0XD-51" value="" style="shape=image;verticalLabelPosition=bottom;verticalAlign=top;imageAspect=0;aspect=fixed;image=data:image/svg+xml,PHN2ZyB4bWxucz0iaHR0cDovL3d3dy53My5vcmcvMjAwMC9zdmciIHZlcnNpb249IjEiIHZpZXdCb3g9IjAgMCA0OCA0OCIgZW5hYmxlLWJhY2tncm91bmQ9Im5ldyAwIDAgNDggNDgiPiYjeGE7ICAgIDxwYXRoIGZpbGw9IiMyRTdEMzIiIGQ9Ik01LDI0YzAsMTguOSwxNC44LDE5LDE3LDE5czQsMCw0LDBTMjQuMSwyNi41LDUsMjR6Ii8+JiN4YTsgICAgPHJlY3QgeD0iMjIiIHk9IjI2IiBmaWxsPSIjMzg4RTNDIiB3aWR0aD0iNCIgaGVpZ2h0PSIxNyIvPiYjeGE7ICAgIDxwYXRoIGZpbGw9IiNDNjI4MjgiIGQ9Ik0zNCwxNmMwLDUuMS01LjIsOC4yLTgsOC4ycy0yLTMuMS0yLTguMnM1LTkuMiw1LTkuMlMzNCwxMC45LDM0LDE2eiIvPiYjeGE7ICAgIDxwYXRoIGZpbGw9IiNDNjI4MjgiIGQ9Ik0xNCwxNmMwLDUuMSw1LjIsOC4yLDgsOC4yczItMy4xLDItOC4ycy01LTkuMi01LTkuMlMxNCwxMC45LDE0LDE2eiIvPiYjeGE7ICAgIDxwYXRoIGZpbGw9IiNFNTM5MzUiIGQ9Ik0yNCwyN2MtMi4yLTEuNi0xLjktNC41LDIuNC04LjhDMzAuOCwxMy44LDMyLDcsMzIsN3M1LDMuNCw1LDlDMzcsMjEuOSwzMS4zLDI3LDI0LDI3eiIvPiYjeGE7ICAgIDxwYXRoIGZpbGw9IiNFNTM5MzUiIGQ9Ik0yNCwyN2MyLjItMS42LDEuOS00LjUtMi40LTguOEMxNy4yLDEzLjgsMTYsNywxNiw3cy01LDMuNC01LDlDMTEsMjEuOSwxNi43LDI3LDI0LDI3eiIvPiYjeGE7ICAgIDxwYXRoIGZpbGw9IiNGNDQzMzYiIGQ9Ik0zMCwxNmMwLDYuMS0yLjcsMTEtNiwxMXMtNi00LjktNi0xMXM2LTExLDYtMTFTMzAsOS45LDMwLDE2eiIvPiYjeGE7ICAgIDxwYXRoIGZpbGw9IiM0Q0FGNTAiIGQ9Ik0yMiw0M2MwLDAsMS44LDAsNCwwczE3LTAuMSwxNy0xOUMyMy45LDI2LjUsMjIsNDMsMjIsNDN6Ii8+JiN4YTs8L3N2Zz4=;" vertex="1" parent="1">
          <mxGeometry x="535" y="671" width="48" height="48" as="geometry" />
        </mxCell>
        <mxCell id="aJsnQmM73jnc_cbVv0XD-54" value="" style="shape=image;verticalLabelPosition=bottom;verticalAlign=top;imageAspect=0;aspect=fixed;image=data:image/svg+xml,PHN2ZyB4bWxucz0iaHR0cDovL3d3dy53My5vcmcvMjAwMC9zdmciIHZlcnNpb249IjEiIHZpZXdCb3g9IjAgMCA0OCA0OCIgZW5hYmxlLWJhY2tncm91bmQ9Im5ldyAwIDAgNDggNDgiPiYjeGE7ICAgIDxwb2x5Z29uIGZpbGw9IiM0NTVBNjQiIHBvaW50cz0iMTIuMSw0MiAxNy4yLDQyIDE2LjUsMTguMiAxMC45LDIwLjIiLz4mI3hhOyAgICA8Y2lyY2xlIGZpbGw9IiNGRkI3NEQiIGN4PSIzNi41IiBjeT0iMTAiIHI9IjUiLz4mI3hhOyAgICA8cG9seWdvbiBmaWxsPSIjNjA3RDhCIiBwb2ludHM9IjExLDQyIDYsNDIgNy44LDE4LjYgMTQuMiwyMC45Ii8+JiN4YTsgICAgPHBhdGggZmlsbD0iIzYwN0Q4QiIgZD0iTTMxLjcsMTUuOWMtMC42LTItMS4zLTQtMi41LTUuOGMtMS4zLTEuNi0zLjItMy4xLTYuMS0yYy0zLjEsMS4zLTkuMiwzLjYtMTEuMiw0LjUgYy0yLjMsMS4xLTQuMSwyLjctNC4xLDUuOWMwLDMuNCw0LjMsNS4zLDQuMyw1LjNsMTQuNy02LjFsMS43LDQuNWw1LjMsMC4xQzMzLjgsMjIuNCwzMi4zLDE3LjksMzEuNywxNS45eiIvPiYjeGE7ICAgIDxwYXRoIGZpbGw9IiNCMzlEREIiIGQ9Ik0zNy45LDQyaC03LjljLTEsMC0xLjgtMC43LTItMS43bC0yLjYtMTcuMWgxN2wtMi42LDE3LjFDMzkuOCw0MS4zLDM4LjksNDIsMzcuOSw0MnoiLz4mI3hhOyAgICA8cGF0aCBmaWxsPSIjN0U1N0MyIiBkPSJNNDIsMjRIMjZjLTAuNiwwLTEtMC40LTEtMXYwYzAtMC42LDAuNC0xLDEtMWgxNmMwLjYsMCwxLDAuNCwxLDF2MEM0MywyMy42LDQyLjYsMjQsNDIsMjR6Ii8+JiN4YTs8L3N2Zz4=;" vertex="1" parent="1">
          <mxGeometry x="382" y="545" width="48" height="48" as="geometry" />
        </mxCell>
        <mxCell id="aJsnQmM73jnc_cbVv0XD-55" value="" style="shape=image;verticalLabelPosition=bottom;verticalAlign=top;imageAspect=0;aspect=fixed;image=data:image/svg+xml,PHN2ZyB4bWxucz0iaHR0cDovL3d3dy53My5vcmcvMjAwMC9zdmciIHZlcnNpb249IjEiIHZpZXdCb3g9IjAgMCA0OCA0OCIgZW5hYmxlLWJhY2tncm91bmQ9Im5ldyAwIDAgNDggNDgiPiYjeGE7ICAgIDxwYXRoIGZpbGw9IiMyRTdEMzIiIGQ9Ik01LDI0YzAsMTguOSwxNC44LDE5LDE3LDE5czQsMCw0LDBTMjQuMSwyNi41LDUsMjR6Ii8+JiN4YTsgICAgPHJlY3QgeD0iMjIiIHk9IjI2IiBmaWxsPSIjMzg4RTNDIiB3aWR0aD0iNCIgaGVpZ2h0PSIxNyIvPiYjeGE7ICAgIDxwYXRoIGZpbGw9IiNDNjI4MjgiIGQ9Ik0zNCwxNmMwLDUuMS01LjIsOC4yLTgsOC4ycy0yLTMuMS0yLTguMnM1LTkuMiw1LTkuMlMzNCwxMC45LDM0LDE2eiIvPiYjeGE7ICAgIDxwYXRoIGZpbGw9IiNDNjI4MjgiIGQ9Ik0xNCwxNmMwLDUuMSw1LjIsOC4yLDgsOC4yczItMy4xLDItOC4ycy01LTkuMi01LTkuMlMxNCwxMC45LDE0LDE2eiIvPiYjeGE7ICAgIDxwYXRoIGZpbGw9IiNFNTM5MzUiIGQ9Ik0yNCwyN2MtMi4yLTEuNi0xLjktNC41LDIuNC04LjhDMzAuOCwxMy44LDMyLDcsMzIsN3M1LDMuNCw1LDlDMzcsMjEuOSwzMS4zLDI3LDI0LDI3eiIvPiYjeGE7ICAgIDxwYXRoIGZpbGw9IiNFNTM5MzUiIGQ9Ik0yNCwyN2MyLjItMS42LDEuOS00LjUtMi40LTguOEMxNy4yLDEzLjgsMTYsNywxNiw3cy01LDMuNC01LDlDMTEsMjEuOSwxNi43LDI3LDI0LDI3eiIvPiYjeGE7ICAgIDxwYXRoIGZpbGw9IiNGNDQzMzYiIGQ9Ik0zMCwxNmMwLDYuMS0yLjcsMTEtNiwxMXMtNi00LjktNi0xMXM2LTExLDYtMTFTMzAsOS45LDMwLDE2eiIvPiYjeGE7ICAgIDxwYXRoIGZpbGw9IiM0Q0FGNTAiIGQ9Ik0yMiw0M2MwLDAsMS44LDAsNCwwczE3LTAuMSwxNy0xOUMyMy45LDI2LjUsMjIsNDMsMjIsNDN6Ii8+JiN4YTs8L3N2Zz4=;" vertex="1" parent="1">
          <mxGeometry x="854" y="660" width="20" height="20" as="geometry" />
        </mxCell>
      </root>
    </mxGraphModel>
  </diagram>
</mxfile>
